<svg width="88" height="88" viewBox="0 0 88 88" fill="none" xmlns="http://www.w3.org/2000/svg">
<path fill-rule="evenodd" clip-rule="evenodd" d="M69.5151 27.3137C68.935 27.9338 68.4324 28.5881 68.0734 29.3094C67.8188 29.7875 68.3173 30.5422 68.6755 30.3007C69.963 29.6969 71.275 29.3249 72.6089 29.2074C73.5391 29.1071 74.4749 29.1128 75.4303 29.3453L75.853 29.6782C76.4412 29.5354 77.0947 29.4995 77.8054 29.5648C78.3227 29.7875 78.8032 30.0486 79.1867 30.4117C78.5993 30.7486 77.6243 30.7486 75.9509 30.1473L74.3664 29.9123C72.7215 29.8528 71.7474 29.9115 70.8637 30.3676C70.6182 30.7854 70.8189 30.9681 71.5923 30.942C72.0778 30.9241 72.9369 31.0456 73.6615 31.239C73.7594 31.4022 73.774 31.5327 73.5325 31.5188C72.795 31.576 72.1251 31.784 71.5956 32.2874C71.5108 32.4139 71.4846 32.5673 71.5181 32.7476L68.3231 32.0516L65.3752 31.6061C65.2373 31.8028 65.1215 32.0802 66.0279 32.4547C66.1454 32.5028 66.3478 32.4449 66.4979 32.4914C68.4177 32.7672 70.3367 33.0217 71.6788 33.8009C71.3027 34.9056 70.8939 35.9981 69.9671 36.9005C68.762 35.6138 67.6206 34.27 66.5754 32.8447C66.5265 32.8757 66.4995 32.945 66.4938 33.0438C66.4636 33.4998 67.0201 34.1493 67.2542 34.5458C67.9494 35.728 68.589 36.8703 69.1226 37.417C69.3576 37.6593 69.5241 37.798 69.8447 37.7262C70.3718 37.6046 70.8833 37.1991 71.4871 36.1229C71.8934 35.5281 72.1227 34.8167 72.2516 34.0432C72.7583 34.1077 73.2584 34.3916 73.7594 34.7327C73.8964 34.8722 74.1869 34.9791 74.3085 35.1014C74.9375 35.7623 75.3128 36.0095 75.4393 35.1977C75.4377 34.5572 75.1725 34.195 74.4977 34.2023L72.2859 33.1873C72.077 32.9573 72.1104 32.7337 72.3087 32.5093C73.0169 32.4938 73.6508 32.5281 74.3215 32.4163C76.8067 31.23 75.5804 30.7527 73.3522 30.4492C74.1469 30.388 74.9816 30.3472 75.9623 30.7291C77.0164 31.0889 78.0591 31.2839 79.0635 31.0114C80.2416 30.6613 79.3531 29.958 78.0159 29.1789C78.8179 28.8297 79.6713 28.5425 80.4032 28.004C80.7336 27.76 81.2052 27.5968 81.3162 27.162C81.4622 26.5974 80.4522 26.271 79.172 26.1241C78.5323 26.1282 78.2917 26.036 78.6384 25.8035L80.3428 25.2022C80.4489 25.048 80.5427 24.9019 80.5476 24.7681C80.5672 23.918 80.2343 24.4981 80.076 24.6882C79.5351 25.3409 78.5193 25.4176 77.6544 25.5702L76.77 25.1059C76.1818 24.8195 76.0422 25.0357 76.2136 25.5914C75.8252 25.9667 75.7085 26.3102 76.3523 26.5598C77.1086 26.3648 77.8029 26.2 77.856 26.55C77.4023 26.6267 76.9887 26.8503 76.6019 27.1758C76.3768 27.0078 76.1752 26.874 76.0178 26.7956C75.5968 26.5843 75.6653 26.7809 75.7926 27.0592C75.8652 27.2117 75.9354 27.3488 75.8831 27.4696C75.7681 27.7364 75.303 27.7731 74.7393 28.1157C74.0604 28.8623 74.1844 28.2275 74.3019 27.9664C74.7784 27.5577 75.0917 27.0665 75.1725 26.4513C75.3112 25.7692 75.5943 25.1761 75.9729 24.6449C76.4396 23.9294 76.5595 23.4015 76.3392 23.08C76.2095 22.1532 76.0871 21.7452 75.7681 21.6335C75.6351 21.6922 75.6253 22.2103 75.72 23.1045C75.4923 24.1432 74.9914 25.0994 74.5451 26.0711C73.969 27.1399 73.1319 27.379 72.959 26.9613C73.2356 26.5117 73.5097 26.0654 73.6892 25.5538C73.956 24.8367 73.646 24.5062 72.8831 24.4018C73.0193 24.671 73.1254 24.946 73.136 25.2324C72.8268 26.2939 71.9832 27.2909 71.7327 28.2895C70.4664 28.5678 69.6342 28.9406 69.4661 28.8721C69.294 28.8035 69.5763 28.3393 70.4052 27.7151C71.1265 27.2754 71.1224 27.1652 70.9437 27.051C70.6859 26.8854 69.8879 27.2191 69.5151 27.3137ZM73.1572 27.8865C72.9916 27.7796 73.0642 27.7584 72.9459 27.7396C72.8953 27.7315 72.7468 27.7062 72.6032 27.7853C72.4131 27.8938 72.2361 28.1264 72.3348 28.23C72.5078 28.4095 73.3237 28.5025 73.4257 28.3426C73.5268 28.1835 73.3229 27.9934 73.1572 27.8865ZM74.0384 27.286C73.965 27.2011 73.5529 27.3211 73.4754 27.4663C73.4518 27.5104 73.4306 27.5879 73.4632 27.6654C73.5154 27.7935 73.6451 27.9297 73.6965 27.9607C73.7724 28.0121 73.8401 27.8155 73.9144 27.7029C73.9854 27.5895 74.1118 27.3716 74.0384 27.286ZM76.473 28.106C76.4412 28.066 76.3555 28.0342 76.2503 28.0505C76.0161 28.0905 75.6726 28.2626 75.5152 28.3573C75.2875 28.4951 75.1399 28.6559 75.1937 28.7456C75.2484 28.8362 75.3805 28.8093 75.7069 28.7326C76.0308 28.6575 76.5783 28.2275 76.473 28.106ZM77.8666 27.4728C77.7793 27.4173 77.4366 27.5479 77.2824 27.7869C77.1282 28.026 76.987 28.1688 77.0776 28.3148C77.1682 28.4625 77.4945 28.3883 77.643 28.0309C77.7915 27.6743 77.9531 27.5275 77.8666 27.4728ZM79.4747 26.6977C79.3189 26.683 78.9591 26.4456 78.7885 26.497C78.6482 26.5378 78.5895 26.7532 78.5242 26.9743C78.5038 27.0412 78.1611 27.0249 78.219 27.1734C78.2598 27.2713 78.4769 27.5854 78.3626 27.6825C78.2443 27.7812 78.2297 27.9673 78.1375 28.0856C77.8617 28.4372 77.6251 28.7415 77.7254 28.797C77.8592 28.8721 78.6653 28.2977 79.3009 28.0391C79.4592 27.9746 79.8631 27.8204 80.1772 27.6409C80.4995 27.4508 80.7181 27.0747 80.7214 26.9498C80.723 26.763 79.6134 26.7083 79.4747 26.6977ZM61.5079 10.5283L59.4347 12.8993C59.2299 13.2836 56.2919 12.4416 54.7196 12.2099C53.7911 12.0761 52.8635 11.9423 51.9358 11.806C51.6715 12.0377 51.8085 12.329 52.3495 12.6806C54.5785 13.5569 56.5709 13.4468 58.649 13.8849C57.8331 14.8664 56.6884 15.5811 55.4727 16.2379C52.9083 17.6454 51.5458 17.5034 50.8564 16.4958C50.5471 16.1515 50.3587 15.8284 49.9964 15.4604C49.8161 15.6089 50.0698 16.1327 50.5423 16.9665C51.5915 19.0006 54.2905 17.9668 57.9163 15.5085C58.1962 16.22 58.2884 16.9282 58.2908 17.6437C58.4214 19.1213 57.9375 19.898 58.4532 20.4374C58.7526 20.7523 59.3376 20.8404 59.9813 20.9057C60.395 20.9285 60.4187 20.0139 60.0417 19.6696C58.6498 18.4303 58.5282 16.6198 58.3797 15.3144C58.9533 14.5825 59.5579 13.9714 60.2636 13.9428C61.1367 14.0212 62.0358 14.4169 62.6975 14.4413C63.1642 14.4577 63.4881 14.3075 63.537 13.9763C63.5052 13.5561 63.2629 13.2558 62.9169 13.1171C62.2308 14.0326 61.1358 13.2412 60.3248 13.1416C60.6357 12.2768 61.2452 11.5988 62.0651 11.0399C63.1005 10.2656 63.2718 9.62675 62.4959 9.13721C62.2952 9.7067 61.9224 10.1359 61.5079 10.5283ZM27.1563 13.7715C26.878 14.824 26.9368 15.3323 27.5936 14.8664C28.172 14.4821 28.7995 13.84 29.4367 13.1514C29.741 12.9531 29.5338 12.3796 29.227 12.3208C29.1062 12.2972 28.8223 12.5721 28.7383 12.6602C28.4747 12.9385 28.2365 13.2322 28.0129 13.5333C27.8693 13.747 27.7568 13.8531 27.7168 13.7176C27.6996 12.9132 27.8049 12.0965 27.9828 11.2757C27.9583 11.0268 27.9126 10.8628 27.8024 10.9893C27.5446 11.9284 27.3056 12.861 27.1563 13.7715ZM29.5917 9.88457L29.5362 10.175C29.2343 11.5229 29.4709 11.5979 30.1416 11.0366C30.53 10.0437 31.2569 9.29468 32.2711 8.75129C31.8011 10.0934 31.084 11.2675 30.3888 12.453C29.5297 13.8139 28.7636 15.1805 28.066 16.5545C27.8489 17.0326 27.716 17.43 27.8179 17.5948C28.0064 17.8991 28.4013 17.3696 28.5294 17.2554C28.7293 17.0742 28.9431 16.9233 29.196 16.8499C29.5109 16.7593 29.4881 16.8833 29.4383 17.1566C29.3518 17.6241 29.1062 18.0908 28.8778 18.5575C28.7938 18.7297 28.4951 19.1001 28.8549 18.9761C29.116 18.8855 29.3755 18.5877 29.6317 18.0615C29.728 17.8665 29.8038 17.6617 29.8552 17.4495C29.9181 17.1779 29.9393 16.8931 29.9066 16.5961C29.7989 16.3889 29.5158 16.331 28.9822 16.4917C28.7783 16.5986 28.6836 16.5969 28.7448 16.4354C29.2947 14.988 30.0731 13.5887 30.9632 12.1707C31.6755 11.1533 32.2654 10.1147 32.582 9.12742C32.6538 8.91039 32.8153 8.57587 32.5991 8.38006C32.3878 8.1614 31.9831 8.34742 31.4813 8.72926C31.1509 8.98464 30.858 9.24654 30.5838 9.55984C30.3072 9.87886 30.1971 9.88702 30.2607 9.58432C30.3554 8.46654 31.1036 7.40506 31.3165 6.28729C31.3655 5.99357 31.3589 5.79612 31.2896 5.6876C31.2578 5.63947 31.2194 5.60765 31.1672 5.59214C30.858 5.48853 30.8841 5.70066 30.8384 5.92013C30.747 6.36643 30.632 6.79885 30.5022 7.22394C30.2909 7.91745 30.038 8.58322 29.79 9.23349C29.7214 9.41217 29.6659 9.71241 29.5917 9.88457ZM29.4514 19.0683C29.2107 19.2209 29.6464 19.4607 29.7891 19.996C29.8316 20.1469 29.865 20.315 29.8871 20.5018C29.9817 21.3585 29.8618 21.795 30.4076 21.7779C30.9567 21.7648 31.0668 21.1178 30.5259 20.1787C30.45 20.0474 30.379 19.9291 30.317 19.8222C29.9197 19.1784 29.6309 18.9565 29.4514 19.0683ZM30.0372 15.5118C29.9784 15.9328 30.2452 15.9679 30.7894 15.7778C30.7274 16.2004 30.6336 16.6165 30.8098 17C30.8849 17.0783 30.9836 17.1403 31.106 17.1819L31.3589 17.2423C31.4593 17.5556 31.6168 17.8436 31.7848 18.1235C31.9431 18.387 31.8991 18.3552 32.192 18.4123C32.4481 18.4637 32.6309 18.5176 32.7419 18.6326C33.3326 19.2486 32.0859 20.4904 31.6959 19.2388C31.4234 18.7036 31.2994 18.5796 31.1623 18.9483C31.0929 19.1507 31.0864 19.3441 31.1223 19.526C31.2259 20.0253 31.4275 20.2701 31.9309 20.3052C32.4792 20.3435 33.0217 19.9951 33.2502 19.5138C33.4607 19.0675 33.3848 18.6546 33.1621 18.3585C32.8251 17.9081 32.6456 18.1194 32.2858 18.0125C32.1348 17.9668 32.0557 17.7563 31.9635 17.492C31.8566 17.1028 31.6575 16.8833 31.394 16.7846C31.1533 16.65 31.0636 16.4076 31.2088 15.9165C31.2716 15.7125 31.3222 15.6056 31.292 15.3837C31.2635 15.1577 31.1558 15.0353 30.9134 15.0965C30.8335 15.1071 30.7854 15.0965 30.7658 15.0745C30.7535 15.0582 30.8319 14.8069 30.8384 14.762L30.9673 14.1182C31.0309 13.7405 30.7388 13.6491 30.601 13.9698C30.3333 14.4936 30.1881 14.9994 30.0372 15.5118ZM31.3834 14.1754C31.496 14.5099 31.6429 14.6453 31.8648 14.332C32.2221 13.2722 32.5053 11.3222 33.0772 12.8373L33.2747 15.7623C33.6369 17.2146 34.2154 17.6429 34.9423 17.3688C35.8235 17.0098 36.3498 16.5202 36.6851 16.6508C37.0286 16.783 37.2301 17.257 36.7781 18.0598C36.5741 18.343 36.3775 18.2026 36.1335 18.2222C35.5543 18.2712 34.9268 18.2491 34.5589 18.4409C34.2007 18.6293 33.9975 18.8978 33.9282 19.2829C33.8988 20.2619 34.7612 20.3231 36.9119 19.1915C37 19.1458 37.0392 19.0463 37.133 18.9965C37.935 19.1882 38.6432 19.3906 39.2649 19.4983C39.7202 19.5774 40.1836 19.4615 39.606 19.0193C39.2821 18.7705 38.6473 18.5428 37.9146 18.3062C37.8322 18.2801 37.7759 18.2181 37.6935 18.1904C37.9212 17.6397 38.0476 17.1256 37.8747 16.6655C37.5826 16.0038 36.8727 15.9255 35.9279 16.1743C35.409 16.2698 34.8257 16.7014 34.5882 16.663C34.3059 16.6182 34.301 16.034 34.2594 15.7941L33.7732 13.0021C33.4199 10.9926 32.874 11.0333 32.2589 11.9096C31.9211 12.6505 31.6037 13.4223 31.3834 14.1754ZM34.8289 18.6538C34.5597 18.7901 34.4838 19.1548 34.5499 19.2886C34.6184 19.4183 34.9138 19.2992 35.2875 19.1433C35.662 18.9867 36.0234 18.7966 35.6383 18.7232C35.2524 18.6481 35.0965 18.5192 34.8289 18.6538ZM10.2762 30.5618C10.7494 31.0734 10.9991 31.7693 11.3581 32.3723C11.4168 32.4335 11.4535 32.5509 11.5506 32.5917C11.8476 32.7207 12.3168 32.6807 12.5338 32.4604C12.8226 32.1765 12.3388 31.545 12.1283 31.3336C11.6763 30.8816 11.1957 30.5349 10.6776 30.2248C10.0828 30.0445 9.80706 30.0282 10.2762 30.5618ZM11.4984 27.4573C11.5261 27.5316 11.5319 27.5528 11.4625 27.5471C10.5764 27.4777 11.2594 28.1402 12.2988 28.8345C12.2857 29.369 12.3543 29.9164 12.4922 30.4712C12.8324 31.1272 12.9776 31.1142 12.9948 30.6458C12.8887 30.1767 12.6619 29.6627 12.7989 29.2849C13.1563 29.7573 13.4908 30.2648 13.8147 30.7935C14.0163 31.0668 14.3304 31.3116 14.3467 31.7114C14.3965 32.8488 13.6932 34.5075 13.4272 35.9157L12.7777 38.476C13.4688 39.1883 14.1386 37.4953 14.7987 34.3924L15.192 32.945C16.0095 33.818 16.8066 33.8637 17.5776 32.7019C18.7158 33.9355 19.1433 35.046 18.3136 36.0316C17.9929 36.4371 17.7 36.6206 17.3516 36.9625C17.2048 37.1567 17.2333 37.2423 17.2888 37.2587C17.3435 37.2742 17.4251 37.2228 17.5564 37.1608C18.1333 36.8858 18.5469 36.5603 18.8178 36.1882C19.2486 35.5959 19.3188 34.8918 19.1205 34.1044C18.9516 33.344 18.6677 32.6219 18.2475 31.9439L20.0914 29.2539C20.3443 28.7913 19.9038 28.4209 19.2013 28.8794C19.1205 28.9235 19.0977 29.0165 19.0275 29.0508C18.3315 29.3616 18.2858 29.4701 18.7011 29.6349L18.3666 30.0918L17.6519 30.9942C17.4512 30.4321 17.1681 30.051 16.2951 29.8683L15.9483 29.6088C16.2771 28.9267 16.4639 28.0872 17.2586 27.9289C18.0101 27.8465 18.4245 27.3716 18.4327 26.4277C18.1137 25.9863 17.6862 25.7896 17.084 25.992C16.2567 26.0662 15.9238 27.552 15.0622 29.6488C14.576 29.9148 14.6331 30.1359 14.8876 30.3456L14.7 30.7609L13.5789 28.8125C14.177 28.3695 14.6274 27.7837 14.771 26.9115C14.864 25.9104 14.8974 24.9199 14.5654 23.9979C14.3818 23.4855 14.2382 23.0996 13.6426 23.4994C12.985 23.9408 12.444 25.2797 12.1128 26.5084C12.0752 26.7695 11.9129 26.7238 11.6241 26.3705C11.1288 25.6534 10.5781 25.0137 9.87478 24.5731C9.27183 24.6931 9.0287 25.1288 9.26775 25.2405C9.42767 25.2797 9.62919 25.2218 9.75403 25.3001C10.5275 25.8027 10.8025 26.8079 11.4984 27.4573ZM15.8993 30.4965C15.7052 30.9061 15.2997 31.4854 15.3894 31.9488C15.4669 32.3511 15.812 32.573 16.2885 32.7223C16.65 32.7223 17.009 32.1593 17.0808 31.7334L15.8993 30.4965ZM12.7573 26.1992C12.6643 26.8111 12.6366 28.0268 13.0723 28.0611C13.5104 28.0945 14.1435 27.2338 14.1648 26.497C14.1827 25.7611 14.1623 24.2125 13.8066 24.1562C13.4533 24.1015 12.8536 25.5889 12.7573 26.1992ZM48.394 54.9987C48.394 55.1553 48.4405 55.2834 48.5368 55.383C48.6314 55.4817 48.7408 55.5314 48.8631 55.5314C48.9806 55.5314 49.0867 55.4809 49.1805 55.3797C49.2744 55.2793 49.3217 55.1512 49.3217 54.9962C49.3217 54.8396 49.2727 54.7115 49.1789 54.6111C49.0851 54.5108 48.9757 54.461 48.8509 54.461C48.7285 54.461 48.6216 54.5091 48.5303 54.6062C48.4389 54.7033 48.394 54.833 48.394 54.9987ZM48.447 53.4713C48.447 53.5929 48.4854 53.6924 48.5621 53.7683C48.6388 53.8425 48.7408 53.8801 48.868 53.8801C48.9806 53.8801 49.0745 53.8434 49.1471 53.7683C49.2197 53.6941 49.2556 53.5986 49.2556 53.4795C49.2556 53.3579 49.2181 53.2584 49.1422 53.1817C49.0655 53.1042 48.9692 53.0658 48.8509 53.0658C48.7318 53.0658 48.6347 53.1042 48.5588 53.1792C48.4837 53.2535 48.447 53.3506 48.447 53.4713ZM48.004 54.1681C47.8017 54.2472 47.6524 54.3582 47.5561 54.5026C47.459 54.6478 47.41 54.8241 47.41 55.0321C47.41 55.2451 47.4622 55.4393 47.5659 55.6114C47.6695 55.7836 47.8196 55.9149 48.0179 56.003C48.217 56.092 48.5041 56.1368 48.8795 56.1368C49.081 56.1368 49.2695 56.1173 49.4457 56.0773C49.6219 56.0381 49.7704 55.9761 49.8887 55.8913C50.007 55.808 50.1074 55.6889 50.189 55.5347C50.2714 55.3805 50.3114 55.2149 50.3114 55.037C50.3114 54.8526 50.264 54.6854 50.1694 54.5336C50.0747 54.3819 49.932 54.2603 49.7394 54.1681C49.8846 54.071 49.9915 53.9706 50.0592 53.8678C50.1498 53.7291 50.1947 53.579 50.1947 53.4191C50.1947 53.145 50.0821 52.9181 49.8553 52.737C49.6276 52.5559 49.2776 52.4653 48.8028 52.4653C48.4446 52.4653 48.1558 52.5379 47.9387 52.684C47.6589 52.8724 47.5202 53.1156 47.5202 53.4126C47.5202 53.5929 47.5683 53.7528 47.6654 53.8915C47.7364 53.9927 47.8482 54.0857 48.004 54.1681ZM46.989 56.0756V55.272H45.4486C45.5392 55.1831 45.6183 55.1113 45.6852 55.0574C45.7521 55.0019 45.8851 54.9057 46.0842 54.7686C46.4179 54.5328 46.6488 54.3166 46.7744 54.1191C46.9017 53.9225 46.9646 53.7161 46.9646 53.4999C46.9646 53.2967 46.9091 53.1131 46.7989 52.9483C46.6888 52.7852 46.5362 52.6636 46.3445 52.5844C46.1503 52.5053 45.8802 52.4653 45.5343 52.4653C45.2014 52.4653 44.9411 52.5069 44.7527 52.5901C44.565 52.6734 44.4198 52.7933 44.3162 52.9483C44.2125 53.1042 44.1416 53.3212 44.1024 53.5994L45.0904 53.6794C45.1182 53.4778 45.1728 53.3383 45.2512 53.26C45.3319 53.1809 45.4339 53.1409 45.5604 53.1409C45.6811 53.1409 45.7823 53.18 45.8623 53.2567C45.9414 53.3334 45.9822 53.4256 45.9822 53.5341C45.9822 53.6345 45.9414 53.7397 45.8606 53.8507C45.7799 53.9617 45.5955 54.1257 45.3067 54.3394C44.8334 54.6903 44.5112 54.9946 44.339 55.2508C44.1677 55.5094 44.064 55.7836 44.0298 56.0756H46.989ZM42.655 53.6957C42.655 53.5048 42.6069 53.353 42.5089 53.2445C42.4127 53.1352 42.2952 53.0813 42.1565 53.0813C42.0251 53.0813 41.9166 53.1311 41.8301 53.229C41.7436 53.3269 41.7012 53.4746 41.7012 53.672C41.7012 53.8703 41.7453 54.022 41.835 54.1265C41.9248 54.2317 42.0365 54.2848 42.1704 54.2848C42.3091 54.2848 42.4249 54.2334 42.5163 54.1314C42.6085 54.0294 42.655 53.8842 42.655 53.6957ZM40.8388 55.2793C40.8967 55.4686 40.98 55.6253 41.0885 55.7509C41.1962 55.8782 41.3324 55.9728 41.4948 56.0389C41.658 56.1042 41.8815 56.1368 42.163 56.1368C42.6411 56.1368 43.0156 55.9883 43.2849 55.6897C43.5541 55.3919 43.6887 54.922 43.6887 54.2823C43.6887 53.8466 43.6243 53.495 43.4962 53.2298C43.3681 52.9638 43.1959 52.7696 42.9814 52.6489C42.7676 52.5265 42.482 52.4653 42.1263 52.4653C41.8309 52.4653 41.5862 52.5159 41.3912 52.6146C41.1954 52.7142 41.042 52.861 40.931 53.0544C40.8192 53.2478 40.7638 53.4632 40.7638 53.6981C40.7638 54.0441 40.8731 54.3296 41.0917 54.5556C41.3104 54.7816 41.5788 54.8942 41.897 54.8942C42.0594 54.8942 42.203 54.8665 42.3286 54.8102C42.4527 54.7531 42.5734 54.6642 42.6917 54.5426C42.6591 54.9244 42.6101 55.1733 42.5457 55.2916C42.4567 55.4507 42.3327 55.5314 42.1753 55.5314C42.0871 55.5314 42.0121 55.5037 41.9501 55.4458C41.8889 55.3903 41.8456 55.2932 41.8195 55.1561L40.8388 55.2793ZM39.7219 52.4653H38.906C38.8015 52.6881 38.6563 52.8757 38.4711 53.0283C38.2851 53.1792 38.0248 53.309 37.6886 53.4175V54.226C37.9163 54.1567 38.1056 54.0849 38.2557 54.0082C38.4074 53.9323 38.5633 53.8328 38.7248 53.7112V56.0756H39.7219V52.4653ZM51.6331 39.3824V34.5026H48.0399V46.5207H49.6154V41.4344H50.2216V39.3824H51.6331ZM54.922 47.7339V42.2984H50.6075V46.9295C51.8975 47.1432 53.0144 47.6091 53.7969 48.2325H54.124C54.3623 48.0513 54.6299 47.8849 54.922 47.7339ZM58.8407 40.3036H51.0514V41.7241H55.3242V41.1268H57.4039V41.7241H58.8407V40.3036ZM56.8124 47.0771V41.8203H55.6767V47.4035C56.0324 47.2713 56.4126 47.162 56.8124 47.0771ZM64.7935 39.278H59.8125V42.2136H63.3551V48.1272C63.4791 48.2137 63.5966 48.3051 63.7067 48.3997H64.7935V39.278ZM62.6044 42.7627H57.6242V46.9417C58.0077 46.8952 58.4067 46.8715 58.8138 46.8715C60.2522 46.8715 61.5732 47.1775 62.6044 47.6858V42.7627ZM42.5563 32.644V46.9148C43.1747 47.1432 43.7189 47.4353 44.162 47.778H44.9232C45.1476 47.6515 45.3882 47.534 45.6436 47.4288V32.644H42.5563ZM46.3061 46.6015H47.0984V33.2184H46.3061V46.6015ZM36.6223 39.0708H38.0338V41.1219H38.6392V46.2082H40.2147V34.1901H36.6223V39.0708ZM41.1007 33.2184V46.5289C41.2264 46.5501 41.3496 46.5737 41.4719 46.6015H41.8938V33.2184H41.1007ZM33.264 47.4386C33.2779 47.4484 33.2926 47.4565 33.3057 47.4663H35.1626C35.9075 47.0094 36.8564 46.6716 37.9195 46.5044V41.5331H33.264V47.4386ZM29.6863 39.4469V40.8674H31.1231V40.2701H33.202V40.8674H37.4749V39.4469H29.6863ZM31.4732 46.6211C31.4772 46.6227 31.4829 46.6243 31.4878 46.626H32.6081V40.692H31.4732V46.6211ZM23.7939 37.6658V46.7875H25.2324V40.6022H28.775V37.6658H23.7939ZM25.8312 41.3316V46.3763H27.2354C27.7404 46.2939 28.2716 46.2498 28.8199 46.2498C29.3673 46.2498 29.8977 46.2939 30.4019 46.3763H30.8123V41.3316H25.8312ZM28.8199 46.7483C26.2392 46.7483 24.0355 47.7331 23.2065 49.1046H63.9311C62.8876 48.0668 60.9833 47.3709 58.8138 47.3709C56.8149 47.3709 55.0403 47.9616 53.9576 48.8648C52.8831 47.9224 51.071 47.3015 49.0222 47.3015C47.2093 47.3015 45.58 47.7878 44.485 48.5523C43.4276 47.5536 41.5601 46.887 39.4379 46.887C37.1738 46.887 35.1969 47.645 34.1876 48.7579C33.22 47.5699 31.1762 46.7483 28.8199 46.7483ZM44.0004 20.0873C30.8294 20.0873 20.0865 30.8294 20.0865 43.9996C20.0865 57.1706 30.8294 67.9127 44.0004 67.9127C57.1714 67.9127 67.9127 57.1706 67.9127 43.9996C67.9127 30.8294 57.1714 20.0873 44.0004 20.0873ZM44.0004 21.0436C31.3557 21.0436 21.0436 31.3557 21.0436 43.9996C21.0436 56.6435 31.3557 66.9564 44.0004 66.9564C56.6443 66.9564 66.9564 56.6435 66.9564 43.9996C66.9564 31.3557 56.6443 21.0436 44.0004 21.0436ZM78.3267 57.5981L78.6808 56.8728L76.3596 55.7411L74.2669 52.0133L73.8556 52.8586L74.9489 54.7058C75.1929 55.1153 75.4189 55.4719 75.6253 55.777C75.2312 55.7974 74.8323 55.8317 74.4268 55.8807L72.2475 56.1548L71.8167 57.0368L76.0063 56.4657L78.3267 57.5981ZM75.2655 63.3559L75.6686 62.6575L71.0114 59.9683L72.0199 58.2223L71.3965 57.8616L68.9807 62.0472L69.604 62.407L70.6076 60.6675L75.2655 63.3559ZM72.4229 67.3856L72.941 66.768L68.27 62.8492L67.7519 63.4668L72.4229 67.3856ZM66.001 71.279C66.2964 71.5597 66.6342 71.7392 67.0119 71.8175C67.3913 71.8967 67.7691 71.86 68.146 71.709C68.5238 71.5597 68.9072 71.2896 69.2972 70.8997C69.6048 70.5921 69.8251 70.2592 69.9589 69.9002C70.0919 69.5412 70.1229 69.1952 70.0511 68.8607C69.9801 68.5262 69.8292 68.2447 69.5999 68.0155C69.369 67.7846 69.1047 67.6393 68.8077 67.5814C68.5115 67.5235 68.1795 67.5626 67.8123 67.6973C67.561 67.7911 67.1514 68.0187 66.5827 68.3769C66.0141 68.7367 65.6257 68.9195 65.4152 68.9301C65.2039 68.9415 65.0203 68.8705 64.8645 68.7147C64.6874 68.5368 64.614 68.3051 64.645 68.022C64.6776 67.7364 64.8645 67.4215 65.2104 67.0764C65.5409 66.7451 65.8607 66.564 66.1699 66.5346C66.4775 66.5036 66.7835 66.6105 67.0862 66.8528L67.5928 66.2646C67.3293 66.0214 67.0307 65.8664 66.7011 65.797C66.3698 65.7285 66.0304 65.7652 65.6836 65.9064C65.3352 66.0475 65.0032 66.2776 64.6833 66.5974C64.3929 66.8879 64.1791 67.2004 64.0388 67.5357C63.9001 67.871 63.8626 68.1941 63.9286 68.5083C63.9947 68.8199 64.1367 69.0851 64.3537 69.3029C64.552 69.5012 64.7813 69.6293 65.0415 69.6889C65.3026 69.7468 65.5906 69.7272 65.9039 69.6293C66.1462 69.5542 66.5142 69.3666 67.0054 69.0663C67.4966 68.7653 67.8221 68.5801 67.9836 68.5091C68.2317 68.3973 68.4446 68.3524 68.6249 68.3753C68.8053 68.3973 68.9619 68.4756 69.0982 68.6111C69.2311 68.7449 69.3127 68.9081 69.3454 69.1039C69.3764 69.2972 69.3397 69.5102 69.2385 69.7419C69.1357 69.9728 68.9766 70.1972 68.7587 70.415C68.514 70.6598 68.2513 70.8376 67.969 70.9478C67.6883 71.0588 67.4321 71.0914 67.2004 71.0473C66.9687 71.0016 66.7329 70.8841 66.4922 70.6932L66.001 71.279ZM60.4015 73.3743L61.84 72.4042C62.1443 72.1994 62.3629 72.0052 62.4919 71.8257C62.6224 71.6454 62.6844 71.4569 62.6803 71.2562C62.6762 71.0571 62.6191 70.8768 62.509 70.7128C62.3474 70.4738 62.1296 70.3359 61.8514 70.2992C61.574 70.2616 61.2484 70.3701 60.8731 70.6239L59.274 71.7017L60.4015 73.3743ZM61.6376 76.6493L62.3058 76.1981L60.7923 73.9535L61.5674 73.4297C61.7404 73.3139 61.8693 73.238 61.9566 73.2021C62.0782 73.1572 62.2087 73.1344 62.3523 73.1319C62.4959 73.1279 62.6852 73.1646 62.9202 73.2413C63.1544 73.3155 63.4726 73.4395 63.8723 73.6101L65.2504 74.2114L66.0924 73.6443L64.2844 72.8611C63.9286 72.7118 63.5925 72.6114 63.2767 72.5641C63.1283 72.5429 62.9373 72.5486 62.7024 72.5837C63.1421 72.1904 63.3959 71.7922 63.4619 71.3892C63.5289 70.9861 63.4407 70.6067 63.1984 70.2486C63.0116 69.9703 62.7701 69.7631 62.4747 69.6269C62.1785 69.4923 61.8832 69.4588 61.5887 69.5257C61.2933 69.5926 60.9196 69.7786 60.4684 70.0829L58.228 71.5932L61.6376 76.6493ZM55.2198 79.1043L59.5212 77.6226L59.287 76.9414L55.7477 78.1603L55.0721 76.1981L58.2614 75.0999L58.0281 74.4235L54.8388 75.5217L54.2309 73.7569L57.6356 72.5837L57.4023 71.9032L53.2339 73.3392L55.2198 79.1043ZM50.2803 80.2262L51.0979 80.0956L52.502 73.7006L51.6894 73.8295L50.756 78.4614C50.6842 78.8098 50.6287 79.1557 50.5863 79.4992C50.4541 79.2063 50.2967 78.8938 50.1155 78.5625L47.858 74.4366L46.9931 74.5728L50.2803 80.2262ZM45.0945 80.6015H45.9006V74.5035H45.0945V80.6015ZM37.7164 79.9243L38.4825 80.032L39.1499 75.2884L41.6539 80.4783L42.473 80.5933L43.3216 74.5549L42.5563 74.448L41.8905 79.1875L39.3849 74.0025L38.5649 73.8866L37.7164 79.9243ZM36.1768 73.2127L35.2075 76.5954C34.9954 77.3322 34.7318 77.7932 34.4161 77.9824C34.0987 78.1717 33.6557 78.1848 33.0854 78.0208C32.7517 77.9253 32.4881 77.7793 32.2948 77.5818C32.103 77.3852 31.9929 77.1527 31.9684 76.8842C31.9431 76.6166 32.0027 76.2274 32.1487 75.7191L33.1188 72.3364L32.3437 72.1137L31.372 75.5013C31.1941 76.1214 31.128 76.6313 31.1754 77.0327C31.221 77.435 31.3916 77.7801 31.6869 78.0689C31.9806 78.3586 32.4049 78.5821 32.9524 78.7388C33.5178 78.9019 34.0049 78.924 34.4153 78.8057C34.8257 78.689 35.1455 78.4761 35.3788 78.1676C35.6122 77.8601 35.8137 77.4105 35.9818 76.823L36.9535 73.4354L36.1768 73.2127ZM25.5881 75.2794L26.293 75.671L29.249 70.3375L28.5441 69.9467L25.5881 75.2794ZM26.3689 68.6127L24.2027 71.3867C23.7311 71.9889 23.3134 72.3177 22.9503 72.3748C22.5848 72.4319 22.1687 72.2777 21.7012 71.913C21.4279 71.6992 21.2386 71.4651 21.1333 71.2097C21.0289 70.9551 21.0142 70.6989 21.0917 70.4403C21.1684 70.1833 21.3691 69.8447 21.6955 69.4278L23.8617 66.6545L23.2269 66.1577L21.0566 68.9342C20.6593 69.4433 20.4072 69.892 20.3003 70.2812C20.1926 70.6712 20.2211 71.0555 20.3868 71.4341C20.5508 71.8126 20.86 72.1782 21.3095 72.529C21.7722 72.8904 22.2152 73.0944 22.6403 73.1385C23.0645 73.1842 23.4415 73.1075 23.7736 72.9084C24.1048 72.7101 24.4597 72.3691 24.8358 71.8869L27.0053 69.1104L26.3689 68.6127ZM14.6935 65.5506L15.1911 66.1879L17.4553 64.4182L19.4061 66.9148L17.142 68.6837L17.6388 69.3209L22.4436 65.567L21.9468 64.9297L19.9731 66.4726L18.0223 63.9752L19.996 62.4339L19.4983 61.7975L14.6935 65.5506ZM11.0162 59.1981L11.3793 59.881L15.6097 57.6316L12.8822 62.7089L13.2705 63.4391L18.6546 60.5778L18.2916 59.894L14.0652 62.1418L16.7879 57.067L16.3995 56.3359L11.0162 59.1981ZM12.0907 53.1817L12.4497 55.2181L14.0016 54.297C14.4723 54.018 14.8623 53.8026 15.1724 53.6524C14.7726 53.6435 14.372 53.6035 13.9665 53.5309L12.0907 53.1817ZM9.31915 51.8844L9.46765 52.728L11.4021 53.0658L11.846 55.5771L10.1506 56.5986L10.3097 57.5043L15.8814 53.987L15.7305 53.1319L9.31915 51.8844ZM44.0004 0C19.7659 0 0 19.7659 0 43.9996C0 68.2341 19.7659 88 44.0004 88C68.2341 88 88 68.2341 88 43.9996C88 19.7659 68.2341 0 44.0004 0ZM44.0004 1.91327C67.1808 1.91327 86.0867 20.8192 86.0867 43.9996C86.0867 67.18 67.1808 86.0867 44.0004 86.0867C20.8192 86.0867 1.91327 67.18 1.91327 43.9996C1.91327 20.8192 20.8192 1.91327 44.0004 1.91327Z" fill="#2B5293"/>
</svg>
